<svg xmlns="http://www.w3.org/2000/svg" xmlns:xlink="http://www.w3.org/1999/xlink" width="20" height="20" viewBox="0 0 20 20"><defs><path id="bfkea" d="M1393.096 60l6.782-6.782a.417.417 0 0 0 0-.59l-2.506-2.506a.417.417 0 0 0-.59 0L1390 56.905l-6.783-6.783a.43.43 0 0 0-.59 0l-2.505 2.506a.417.417 0 0 0 0 .59l6.782 6.782-6.782 6.783a.417.417 0 0 0 0 .59l2.506 2.505a.417.417 0 0 0 .59 0l6.782-6.782 6.783 6.782a.417.417 0 0 0 .59 0l2.505-2.506a.417.417 0 0 0 0-.59z"/></defs><g><g transform="translate(-1380 -50)"><use fill="#fff" xlink:href="#bfkea"/></g></g></svg>