<svg xmlns="http://www.w3.org/2000/svg" xmlns:xlink="http://www.w3.org/1999/xlink" width="30" height="30" viewBox="0 0 30 30"><defs><path id="ttdva" d="M1256 784.97c0-8.268 6.702-14.97 14.97-14.97s14.97 6.702 14.97 14.97-6.702 14.97-14.97 14.97-14.97-6.702-14.97-14.97z"/><path id="ttdvb" d="M1276.943 776.11h-11.944a1.819 1.819 0 0 0-1.819 1.819v11.944c0 1.004.814 1.819 1.819 1.819h10.094l-.41-1.64 4.079 3.783v-15.906a1.819 1.819 0 0 0-1.82-1.819z"/><path id="ttdvc" d="M1272.665 785.451c-.492 0-.892-.424-.892-.948s.4-.95.892-.95c.493 0 .892.426.892.95s-.399.948-.892.948zm-3.27 0c-.495 0-.896-.424-.896-.948s.401-.95.897-.95c.495 0 .897.426.897.95s-.402.948-.897.948zm5.523-4.317s-.754-.798-2.467-.914v.252s.94-.054 2.102 1.09c-.878-.631-2.13-1.027-3.52-1.027-1.39 0-2.642.396-3.52 1.027 1.163-1.144 2.102-1.09 2.102-1.09v-.252c-1.713.116-2.467.914-2.467.914-1.304 1.68-1.378 5.357-1.378 5.357 1.23 1.482 2.773 1.293 2.773 1.293l.568-.82c-.732-.198-1.254-.652-1.568-1.006.876.62 2.115 1.006 3.49 1.006s2.614-.387 3.49-1.006c-.314.354-.836.808-1.568 1.006l.568.82s1.544.189 2.773-1.293c0 0-.073-3.676-1.378-5.357z"/></defs><g><g transform="translate(-1256 -770)"><g><use fill="#827ddc" xlink:href="#ttdva"/></g><g><use fill="#5046af" xlink:href="#ttdvb"/></g><g><use fill="#fff" xlink:href="#ttdvc"/></g></g></g></svg>