<svg xmlns="http://www.w3.org/2000/svg" xmlns:xlink="http://www.w3.org/1999/xlink" width="13" height="18" viewBox="0 0 13 18"><defs><path id="hl2ha" d="M206.699 113.77v-.012h-1.8v-3.493h2.09c.488 0 2.322.163 2.322 1.467s-.87 2.037-2.612 2.037zm-1.8-8.37h1.161c.813 0 2.415.14 2.415 1.463.056.864-.57 1.62-1.428 1.73H204.9zm5.33 3.622a2.74 2.74 0 0 0 1.358-2.832c-.232-1.753-2.322-2.415-3.97-2.555V101h-1.626v2.612h-1.092V101h-1.625v2.612H200v1.684h1.219c.546 0 .813.162.813.603v7.233c0 .604-.302.79-.627.79h-1.242v1.718h3.157v2.67h1.637v-2.67h1.092v2.67h1.59v-2.67h.349c3.343 0 4.458-1.637 4.458-3.866a2.89 2.89 0 0 0-2.218-2.752z"/></defs><g><g opacity=".3" transform="translate(-200 -101)"><use fill="#fff" xlink:href="#hl2ha"/></g></g></svg>