<svg xmlns="http://www.w3.org/2000/svg" xmlns:xlink="http://www.w3.org/1999/xlink" width="18" height="11" viewBox="0 0 18 11"><defs><path id="b043a" d="M942.458 14.29a1.883 1.883 0 0 1-.943 3.516 1.885 1.885 0 0 1-1.667-2.763l-3.518-1.85 2.143 6.998c1.845-.374 4.097.405 6.53.405V9.88z"/><path id="b043b" d="M947.546 14.29a1.883 1.883 0 0 0 .942 3.516 1.885 1.885 0 0 0 1.667-2.763l3.519-1.85-2.143 6.998c-1.846-.374-4.098.405-6.531.405V9.88z"/><path id="b043c" d="M944.997 20.215c-2.291 0-4.64-.793-6.627-.391l.097.362c1.845-.374 4.097.406 6.53.406s4.685-.78 6.53-.406l.098-.362c-1.986-.402-4.336.39-6.628.39z"/><path id="b043d" d="M945.001 15.89l-.961 1.791h.961z"/><path id="b043e" d="M945 15.89l.961 1.791H945z"/><path id="b043f" d="M945.001 19.471l-.961-1.791h.961z"/><path id="b043g" d="M945 19.471l.961-1.791H945z"/></defs><g><g transform="translate(-936 -10)"><g><use fill="#ff566e" xlink:href="#b043a"/></g><g><use fill="#ff1f3f" xlink:href="#b043b"/></g><g><use fill="#d8001f" xlink:href="#b043c"/></g><g><use fill="#fff" xlink:href="#b043d"/></g><g><g><use fill="#e1effa" xlink:href="#b043e"/></g><g><use fill="#e1effa" xlink:href="#b043f"/></g></g><g><use fill="#cee2f2" xlink:href="#b043g"/></g></g></g></svg>