<svg xmlns="http://www.w3.org/2000/svg" xmlns:xlink="http://www.w3.org/1999/xlink" width="58" height="55" viewBox="0 0 58 55"><defs><path id="gktqa" d="M744.472 1272.106c0 1.053-.856 1.91-1.91 1.91h-1.91v9.421h-3.819v-9.42h-3.82v9.42h-3.819V1251.1h9.55c1.43 0 3.51-.312 3.82 1.462.312 1.774 1.908 19.545 1.908 19.545zm-19.097 11.331h-3.82v-9.42h-3.819v9.42h-3.82V1251.1h11.459zm-15.278 0h-3.82v-9.42h-3.819v9.42h-3.82v-9.42h-1.91a1.908 1.908 0 0 1-1.909-1.91s1.452-18.085 1.908-19.546c.456-1.462 2.39-1.462 3.822-1.462h9.548zm36.285-32.338c-.285-2.886-4.612-3.819-7.639-3.819H700.55c-3.028 0-7.291.458-7.64 3.82-.348 3.361-1.909 21.006-1.909 21.006a5.73 5.73 0 0 0 3.82 5.405v9.491h49.652v-9.494a5.74 5.74 0 0 0 3.82-5.402s-1.624-18.12-1.91-21.007z"/><path id="gktqb" d="M734.919 1243.458a3.824 3.824 0 0 1-3.82-3.82 3.824 3.824 0 0 1 3.82-3.819 3.824 3.824 0 0 1 3.82 3.82 3.824 3.824 0 0 1-3.82 3.82zm0-11.458c-4.212 0-7.639 3.427-7.639 7.639s3.427 7.639 7.639 7.639 7.639-3.427 7.639-7.64c0-4.211-3.427-7.638-7.64-7.638z"/><path id="gktqc" d="M704.369 1243.458a3.824 3.824 0 0 1-3.82-3.82 3.824 3.824 0 0 1 3.82-3.819 3.824 3.824 0 0 1 3.82 3.82 3.824 3.824 0 0 1-3.82 3.82zm0-11.458c-4.212 0-7.639 3.427-7.639 7.639s3.427 7.639 7.639 7.639 7.639-3.427 7.639-7.64c0-4.211-3.427-7.638-7.64-7.638z"/><path id="gktqd" d="M719.649 1243.458a3.825 3.825 0 0 1-3.822-3.82 3.825 3.825 0 0 1 3.822-3.819 3.825 3.825 0 0 1 3.822 3.82 3.825 3.825 0 0 1-3.822 3.82zm0-11.458c-4.212 0-7.639 3.427-7.639 7.639s3.427 7.639 7.639 7.639 7.639-3.427 7.639-7.64c0-4.211-3.427-7.638-7.64-7.638z"/></defs><g><g transform="translate(-691 -1232)"><g><use fill="#508dcf" xlink:href="#gktqa"/></g><g><use fill="#508dcf" xlink:href="#gktqb"/></g><g><use fill="#508dcf" xlink:href="#gktqc"/></g><g><use fill="#508dcf" xlink:href="#gktqd"/></g></g></g></svg>