<svg xmlns="http://www.w3.org/2000/svg" xmlns:xlink="http://www.w3.org/1999/xlink" width="11" height="11" viewBox="0 0 11 11"><defs><path id="7g0va" d="M263.167 1402.73c0 .2-.093.34-.28.422a.499.499 0 0 1-.179.035.426.426 0 0 1-.322-.136l-1.031-1.03-3.824 3.824a.441.441 0 0 1-.323.136.44.44 0 0 1-.322-.136l-.73-.731a.44.44 0 0 1-.136-.322.44.44 0 0 1 .136-.322l3.824-3.825-1.031-1.031c-.148-.139-.182-.306-.1-.501a.428.428 0 0 1 .422-.28h3.437c.125 0 .232.046.323.136a.44.44 0 0 1 .136.323v3.437zm1.228-5.125a1.986 1.986 0 0 0-1.457-.605h-6.875c-.569 0-1.054.202-1.458.605-.403.404-.605.89-.605 1.458v6.875c0 .568.202 1.054.605 1.457.404.403.89.605 1.458.605h6.875c.568 0 1.054-.202 1.457-.605.403-.403.605-.89.605-1.457v-6.875c0-.569-.202-1.055-.605-1.458z"/></defs><g><g opacity=".4" transform="translate(-254 -1397)"><use fill="#fff" xlink:href="#7g0va"/></g></g></svg>