<svg xmlns="http://www.w3.org/2000/svg" xmlns:xlink="http://www.w3.org/1999/xlink" width="40" height="40" viewBox="0 0 40 40"><defs><path id="rfgha" d="M730 710c0-11.046 8.954-20 20-20s20 8.954 20 20-8.954 20-20 20-20-8.954-20-20z"/><path id="rfghb" d="M755.594 706.364L751.958 710l3.636 3.636a1.385 1.385 0 0 1-1.957 1.958L750 711.958l-3.636 3.636a1.38 1.38 0 0 1-.98.406 1.385 1.385 0 0 1-.979-2.364l3.637-3.636-3.636-3.636a1.385 1.385 0 0 1 1.957-1.959l3.637 3.637 3.636-3.637a1.385 1.385 0 0 1 1.958 1.959z"/></defs><g><g transform="translate(-730 -690)"><use fill="#1e1d25" xlink:href="#rfgha"/></g><g transform="translate(-730 -690)"><use fill="#fff" xlink:href="#rfghb"/></g></g></svg>