<svg xmlns="http://www.w3.org/2000/svg" xmlns:xlink="http://www.w3.org/1999/xlink" width="20" height="20" viewBox="0 0 20 20"><defs><path id="rtnia" d="M916.875 115h-3.75a.625.625 0 1 1 0-1.25h.625V110h-.625a.625.625 0 1 1 0-1.25h2.5c.345 0 .625.28.625.625v4.375h.625a.625.625 0 0 1 0 1.25zM915 105a1.25 1.25 0 1 1 0 2.5 1.25 1.25 0 0 1 0-2.5zm0-5c-5.523 0-10 4.477-10 10s4.477 10 10 10 10-4.477 10-10-4.477-10-10-10z"/></defs><g><g transform="translate(-905 -100)"><use fill="#ff9500" xlink:href="#rtnia"/></g></g></svg>