<svg xmlns="http://www.w3.org/2000/svg" xmlns:xlink="http://www.w3.org/1999/xlink" width="16" height="16" viewBox="0 0 16 16"><defs><path id="iyvda" d="M1294 57a8 8 0 1 1 16 0 8 8 0 0 1-16 0z"/><path id="iyvdb" d="M1294 60.24c0-2.629 3.582-4.76 8-4.76s8 2.131 8 4.76-3.582 4.76-8 4.76-8-2.131-8-4.76z"/><path id="iyvdc" d="M1309.41 60.02c.38-.932.59-1.952.59-3.02a8.274 8.274 0 0 0-.575-2.984c-.015-.036-14.835.001-14.85.001A7.978 7.978 0 0 0 1294 57c0 1.069.21 2.088.59 3.02"/></defs><g><g transform="translate(-1294 -49)"><use fill="#f0f0f0" xlink:href="#iyvda"/></g><g transform="translate(-1294 -49)"><use fill="#d80027" xlink:href="#iyvdb"/></g><g transform="translate(-1294 -49)"><use fill="#0052b4" xlink:href="#iyvdc"/></g></g></svg>