<svg xmlns="http://www.w3.org/2000/svg" xmlns:xlink="http://www.w3.org/1999/xlink" width="18" height="18" viewBox="0 0 18 18"><defs><path id="l4dra" d="M314 806a9 9 0 1 1 18 0 9 9 0 0 1-18 0z"/><path id="l4drb" d="M325.797 804.182L323.98 806l1.818 1.818a.692.692 0 0 1-.979.98L323 806.978l-1.818 1.818a.69.69 0 0 1-.98 0 .692.692 0 0 1 0-.979l1.819-1.818-1.818-1.818a.692.692 0 0 1 .979-.98l1.818 1.819 1.818-1.818a.692.692 0 0 1 .98.979z"/></defs><g><g transform="translate(-314 -797)"><use fill="#1e1d25" xlink:href="#l4dra"/></g><g transform="translate(-314 -797)"><use fill="#fff" xlink:href="#l4drb"/></g></g></svg>