<svg xmlns="http://www.w3.org/2000/svg" xmlns:xlink="http://www.w3.org/1999/xlink" width="14" height="12" viewBox="0 0 14 12"><defs><path id="b644a" d="M1071.41 847.517c.14-.123-.022-.34-.18-.242l-6.892 4.244a.31.31 0 0 0-.134.357l.94 4.098c.019.063.109.054.117-.011l.21-3.123a.308.308 0 0 1 .104-.199zm1.576-2.262a.645.645 0 0 1 .867.73l-2.145 10.186a.677.677 0 0 1-1.061.403l-3.239-2.361-1.65 1.674a.55.55 0 0 1-.915-.217l-1.192-3.756-3.192-.936a.454.454 0 0 1-.037-.86z"/><path id="b644b" d="M1071.23 847.275c.158-.098.32.118.18.241l-5.835 5.126a.309.309 0 0 0-.104.199l-.21 3.124c-.008.065-.098.073-.117.01l-.94-4.098a.31.31 0 0 1 .134-.357z"/><path id="b644c" d="M1065.178 856.017a.537.537 0 0 1-.335-.347l-1.192-3.756-3.192-.936a.454.454 0 0 1-.037-.86l12.564-4.863a.647.647 0 0 1 .678.132l-8.524 6.912v.302l-.047-.033.047 1.905v1.528c.012.006.025.01.038.015v.001z"/><path id="b644d" d="M1073.867 845.816a.692.692 0 0 1-.013.171l-2.146 10.186a.677.677 0 0 1-1.06.404l-3.24-2.361-2.268-1.612v-.303l8.524-6.911a.671.671 0 0 1 .12.148c.004.01.01.02.015.029.004.01.01.019.013.028.005.01.01.02.013.031a.636.636 0 0 1 .042.19z"/><path id="b644e" d="M1067.408 854.212l-1.65 1.674a.649.649 0 0 1-.088.072v.001a.571.571 0 0 1-.096.05.55.55 0 0 1-.318.028h-.008a1.286 1.286 0 0 1-.07-.023l-.038-1.542V852.6z"/><path id="b644f" d="M1071.41 847.516l-5.835 5.126a.309.309 0 0 0-.104.199l-.21 3.124c-.007.065-.098.074-.117.011l-.94-4.1a.31.31 0 0 1 .134-.356l6.892-4.245c.158-.098.32.118.18.241z"/></defs><g><g transform="translate(-1060 -845)"><g><use fill="#fff" xlink:href="#b644a"/></g><g><use fill="#9ec2e5" xlink:href="#b644b"/></g><g><use fill="#fff" xlink:href="#b644c"/></g><g><g><use fill="#d1d1d1" xlink:href="#b644d"/></g><g><use fill="#d1d1d1" xlink:href="#b644e"/></g></g><g><use fill="#adbcc9" xlink:href="#b644f"/></g></g></g></svg>