<svg xmlns="http://www.w3.org/2000/svg" xmlns:xlink="http://www.w3.org/1999/xlink" width="20" height="17" viewBox="0 0 20 17"><defs><path id="n03na" d="M98.876 55.738l.031.006H85.524l4.207-4.216c.206-.206.32-.485.32-.777 0-.293-.114-.57-.32-.776l-.655-.655a1.085 1.085 0 0 0-.772-.32c-.293 0-.567.113-.773.319l-7.212 7.211c-.207.207-.32.482-.319.775 0 .294.112.57.319.776l7.212 7.212c.206.206.48.319.773.319.292 0 .567-.113.772-.319l.655-.655c.206-.205.32-.48.32-.773a1.05 1.05 0 0 0-.32-.758l-4.255-4.24h13.415c.602 0 1.109-.52 1.109-1.122v-.926c0-.603-.521-1.081-1.124-1.081z"/></defs><g><g opacity=".3" transform="translate(-80 -49)"><use fill="#fff" xlink:href="#n03na"/></g></g></svg>