<svg xmlns="http://www.w3.org/2000/svg" xmlns:xlink="http://www.w3.org/1999/xlink" width="58" height="58" viewBox="0 0 58 58"><defs><path id="cpxha" d="M1131.27 1265.908l-11.64 14.233-.044.056a8.537 8.537 0 0 1-6.795 3.396h-15.169c-3.847 0-7.02-.56-10.427-1.516v-12.999l1.184-1.04c3.231-2.843 8.105-2.843 11.336 0a7.937 7.937 0 0 0 5.228 1.97h7.848a1.7 1.7 0 0 1 1.699 1.699 1.7 1.7 0 0 1-1.699 1.698h-12.074a1.698 1.698 0 1 0 0 3.395h13.213a5.115 5.115 0 0 0 3.719-1.61c.427-.444 10.619-11.035 10.981-11.413l.01-.01.01-.01c1.042-1.118 2.942-.387 2.942 1.158 0 .36-.111.703-.321.993zm-30.378-12.997v11.75a11.984 11.984 0 0 0-6.848-2.137c-2.473 0-4.859.753-6.849 2.138v-11.751zm-17.095-8.381a1.7 1.7 0 0 1 1.698-1.699h15.397v6.682h-17.095zm13.462-12.132a3.468 3.468 0 0 1 3.075 1.82l2.817 5.206h-5.887c-1.306 0-2.456-.694-3.077-1.856-1.28-2.395.476-5.17 3.072-5.17zm10.44 10.433v23.783h-2.752c-.217 0-.433-.016-.646-.047v-23.736h3.398zm3.62-8.61a3.47 3.47 0 0 1 2.91-1.82c2.683-.123 4.546 2.72 3.238 5.167-.622 1.162-1.772 1.855-3.077 1.855h-5.887zm13.476 18.69v9.952l-7.116 7.401a5.103 5.103 0 0 0-4.883-3.65h-1.698v-13.703zm1.7-10.08a1.7 1.7 0 0 1 1.698 1.699v4.983h-17.095v-6.682h15.397zm-42.698 40.771h-3.399v-16.988h3.399zm44.406-23.488v-7.203h1.7c.938 0 1.699-.761 1.699-1.7v-6.681a5.103 5.103 0 0 0-5.098-5.096h-6.185c2.798-4.77-.79-10.682-6.247-10.426a6.844 6.844 0 0 0-5.742 3.598l-2.503 4.632-2.506-4.636a6.842 6.842 0 0 0-5.74-3.594c-5.457-.254-9.046 5.654-6.247 10.426h-5.838a5.103 5.103 0 0 0-5.098 5.096v6.682c0 .938.761 1.699 1.7 1.699h1.699v10.306h-5.098c-.938 0-1.699.76-1.699 1.699v20.385c0 .938.76 1.699 1.7 1.699h6.796c.835 0 1.527-.602 1.67-1.395a40.11 40.11 0 0 0 10.458 1.395h15.173c3.712 0 7.258-1.767 9.493-4.727.035-.043 11.66-14.258 11.692-14.301a5.053 5.053 0 0 0 1.018-3.056c0-3.482-3.455-5.986-6.797-4.802z"/></defs><g><g transform="translate(-1077 -1229)"><use fill="#508dcf" xlink:href="#cpxha"/></g></g></svg>