<svg xmlns="http://www.w3.org/2000/svg" xmlns:xlink="http://www.w3.org/1999/xlink" width="50" height="57" viewBox="0 0 50 57"><defs><path id="nvrsa" d="M336.295 1259.919v23.49h-11.648c-.916 0-1.66-.745-1.66-1.662v-20.611l3.34-1.217zm3.312 0h3.336v23.49h-3.336zm6.648 0h13.31v21.829c0 .916-.768 1.662-1.684 1.662h-11.626zm-28.123-.544l-1.706-4.69a1.663 1.663 0 0 1 .993-2.132l14.057-5.12 2.274 6.252zm6.991-20.441a3.397 3.397 0 0 1 3.285.7l4.308 3.803-5.404 1.964a3.373 3.373 0 0 1-3.452-.667c-2-1.792-1.238-5.02 1.263-5.8zm12.6 6.225l2.274 6.247-3.123 1.137-2.274-6.247zm.78-8.915a3.393 3.393 0 0 1 2.065-2.65 3.394 3.394 0 0 1 3.336.397c2.233 1.633 1.698 4.763-.85 5.69l-3.344 1.218-2.044.744zm16.4 2.662a1.664 1.664 0 0 1 2.131.993l1.706 4.686-15.619 5.685-2.274-6.248zm8.097 7.666l-2.842-7.81a4.992 4.992 0 0 0-6.391-2.98l-5.226 1.902.025-.153c.342-2.41-.667-4.736-2.7-6.223a6.693 6.693 0 0 0-6.577-.781 6.69 6.69 0 0 0-4.072 5.216l-.746 4.815-3.861-3.413a6.692 6.692 0 0 0-6.478-1.384c-5.003 1.564-6.372 7.974-2.493 11.456.07.062.141.122.213.182l-5.57 2.027a4.983 4.983 0 0 0-2.98 6.39l2.843 7.81 3.54-1.28v19.402c0 2.749 2.214 4.986 4.963 4.986h33.242a4.992 4.992 0 0 0 4.986-4.986v-25.153h-27.414z"/></defs><g><g transform="translate(-313 -1230)"><use fill="#508dcf" xlink:href="#nvrsa"/></g></g></svg>